ffmpeg version 8.0-full_build-www.gyan.dev Copyright (c) 2000-2025 the FFmpeg developers
  built with gcc 15.2.0 (Rev8, Built by MSYS2 project)
  configuration: --enable-gpl --enable-version3 --enable-static --disable-w32threads --disable-autodetect --enable-fontconfig --enable-iconv --enable-gnutls --enable-lcms2 --enable-libxml2 --enable-gmp --enable-bzlib --enable-lzma --enable-libsnappy --enable-zlib --enable-librist --enable-libsrt --enable-libssh --enable-libzmq --enable-avisynth --enable-libbluray --enable-libcaca --enable-libdvdnav --enable-libdvdread --enable-sdl2 --enable-libaribb24 --enable-libaribcaption --enable-libdav1d --enable-libdavs2 --enable-libopenjpeg --enable-libquirc --enable-libuavs3d --enable-libxevd --enable-libzvbi --enable-liboapv --enable-libqrencode --enable-librav1e --enable-libsvtav1 --enable-libvvenc --enable-libwebp --enable-libx264 --enable-libx265 --enable-libxavs2 --enable-libxeve --enable-libxvid --enable-libaom --enable-libjxl --enable-libvpx --enable-mediafoundation --enable-libass --enable-frei0r --enable-libfreetype --enable-libfribidi --enable-libharfbuzz --enable-liblensfun --enable-libvidstab --enable-libvmaf --enable-libzimg --enable-amf --enable-cuda-llvm --enable-cuvid --enable-dxva2 --enable-d3d11va --enable-d3d12va --enable-ffnvcodec --enable-libvpl --enable-nvdec --enable-nvenc --enable-vaapi --enable-libshaderc --enable-vulkan --enable-libplacebo --enable-opencl --enable-libcdio --enable-openal --enable-libgme --enable-libmodplug --enable-libopenmpt --enable-libopencore-amrwb --enable-libmp3lame --enable-libshine --enable-libtheora --enable-libtwolame --enable-libvo-amrwbenc --enable-libcodec2 --enable-libilbc --enable-libgsm --enable-liblc3 --enable-libopencore-amrnb --enable-libopus --enable-libspeex --enable-libvorbis --enable-ladspa --enable-libbs2b --enable-libflite --enable-libmysofa --enable-librubberband --enable-libsoxr --enable-chromaprint --enable-whisper
  libavutil      60.  8.100 / 60.  8.100
  libavcodec     62. 11.100 / 62. 11.100
  libavformat    62.  3.100 / 62.  3.100
  libavdevice    62.  1.100 / 62.  1.100
  libavfilter    11.  4.100 / 11.  4.100
  libswscale      9.  1.100 /  9.  1.100
  libswresample   6.  1.100 /  6.  1.100
Input #0, mov,mp4,m4a,3gp,3g2,mj2, from 'vee01.mov':
  Metadata:
    major_brand     : qt  
    minor_version   : 512
    compatible_brands: qt  
    creation_time   : 2025-10-13T20:09:43.000000Z
    encoder         : Blackmagic Design DaVinci Resolve
  Duration: 00:01:46.00, start: 0.000000, bitrate: 83039 kb/s
  Stream #0:0[0x1]: Video: cfhd (CFHD / 0x44484643), gbrap12le(bt709, progressive), 1280x720, 81501 kb/s, SAR 1:1 DAR 16:9, 30 fps, 30 tbr, 15360 tbn (default)
    Metadata:
      creation_time   : 2025-10-13T20:09:43.000000Z
      handler_name    : VideoHandler
      vendor_id       :     
      encoder         : GoPro CineForm RGB 16-bit
      timecode        : 01:00:00:00
  Stream #0:1[0x2]: Audio: pcm_s16le (lpcm / 0x6D63706C), 48000 Hz, stereo, s16, 1536 kb/s (default)
    Metadata:
      creation_time   : 2025-10-13T20:09:43.000000Z
      handler_name    : SoundHandler
      vendor_id       : [0][0][0][0]
  Stream #0:2[0x3](eng): Data: none (tmcd / 0x64636D74) (default)
    Metadata:
      creation_time   : 2025-10-13T20:09:43.000000Z
      handler_name    : TimeCodeHandler
      timecode        : 01:00:00:00
Stream mapping:
  Stream #0:0 -> #0:0 (cfhd (native) -> vp9 (libvpx-vp9))
  Stream #0:1 -> #0:1 (pcm_s16le (native) -> opus (libopus))
Press [q] to stop, [?] for help
[libvpx-vp9 @ 000001914ec06a80] v1.15.2-100-g40561f514
Output #0, webm, to 'vee01-transparent.webm':
  Metadata:
    major_brand     : qt  
    minor_version   : 512
    compatible_brands: qt  
    encoder         : Lavf62.3.100
  Stream #0:0: Video: vp9, yuva420p(tv, unknown/bt709/bt709, progressive), 352x720 [SAR 1:1 DAR 22:45], q=2-31, 2000 kb/s, 30 fps, 1k tbn (default)
    Metadata:
      encoder         : Lavc62.11.100 libvpx-vp9
      creation_time   : 2025-10-13T20:09:43.000000Z
      handler_name    : VideoHandler
      vendor_id       :     
      timecode        : 01:00:00:00
    Side data:
      cpb: bitrate max/min/avg: 0/0/0 buffer size: 0 vbv_delay: N/A
  Stream #0:1: Audio: opus, 48000 Hz, stereo, s16, 128 kb/s (default)
    Metadata:
      encoder         : Lavc62.11.100 libopus
      creation_time   : 2025-10-13T20:09:43.000000Z
      handler_name    : SoundHandler
      vendor_id       : [0][0][0][0]
frame=    0 fps=0.0 q=0.0 size=       1KiB time=N/A bitrate=N/A speed=N/A elapsed=0:00:00.52    
frame=    5 fps=4.8 q=19.0 size=       1KiB time=00:00:00.16 bitrate=  43.2kbits/s speed=0.161x elapsed=0:00:01.03    
frame=    9 fps=5.8 q=13.0 size=       1KiB time=00:00:00.30 bitrate=  24.0kbits/s speed=0.193x elapsed=0:00:01.55    
frame=   12 fps=5.8 q=11.0 size=       1KiB time=00:00:00.40 bitrate=  18.0kbits/s speed=0.193x elapsed=0:00:02.06    
frame=   16 fps=6.2 q=8.0 size=       1KiB time=00:00:00.53 bitrate=  13.5kbits/s speed=0.206x elapsed=0:00:02.58    
frame=   18 fps=5.8 q=6.0 size=       1KiB time=00:00:00.60 bitrate=  12.0kbits/s speed=0.194x elapsed=0:00:03.09    
frame=   20 fps=5.5 q=5.0 size=       1KiB time=00:00:00.66 bitrate=  10.8kbits/s speed=0.184x elapsed=0:00:03.61    
frame=   22 fps=5.3 q=5.0 size=       1KiB time=00:00:00.73 bitrate=   9.8kbits/s speed=0.178x elapsed=0:00:04.13    
frame=   25 fps=5.4 q=7.0 size=       1KiB time=00:00:00.83 bitrate=   8.6kbits/s speed=0.179x elapsed=0:00:04.64    
frame=   27 fps=5.2 q=5.0 size=       1KiB time=00:00:00.90 bitrate=   8.0kbits/s speed=0.174x elapsed=0:00:05.16    
frame=   29 fps=5.1 q=8.0 size=       1KiB time=00:00:00.96 bitrate=   7.4kbits/s speed=0.17x elapsed=0:00:05.68    
frame=   30 fps=4.8 q=8.0 size=       1KiB time=00:00:01.00 bitrate=   7.2kbits/s speed=0.161x elapsed=0:00:06.19    
frame=   33 fps=4.9 q=5.0 size=       1KiB time=00:00:01.10 bitrate=   6.5kbits/s speed=0.164x elapsed=0:00:06.71    
frame=   35 fps=4.8 q=6.0 size=       1KiB time=00:00:01.16 bitrate=   6.2kbits/s speed=0.161x elapsed=0:00:07.22    
frame=   38 fps=4.9 q=6.0 size=       1KiB time=00:00:01.26 bitrate=   5.7kbits/s speed=0.164x elapsed=0:00:07.74    
frame=   40 fps=4.8 q=5.0 size=       1KiB time=00:00:01.33 bitrate=   5.4kbits/s speed=0.161x elapsed=0:00:08.25    
frame=   41 fps=4.7 q=1.0 size=       1KiB time=00:00:01.36 bitrate=   5.3kbits/s speed=0.156x elapsed=0:00:08.77    
frame=   44 fps=4.7 q=6.0 size=       1KiB time=00:00:01.46 bitrate=   4.9kbits/s speed=0.158x elapsed=0:00:09.28    
frame=   46 fps=4.7 q=7.0 size=       1KiB time=00:00:01.53 bitrate=   4.7kbits/s speed=0.156x elapsed=0:00:09.80    
frame=   50 fps=4.8 q=10.0 size=       1KiB time=00:00:01.66 bitrate=   4.3kbits/s speed=0.161x elapsed=0:00:10.32    
frame=   51 fps=4.7 q=3.0 size=       1KiB time=00:00:01.70 bitrate=   4.2kbits/s speed=0.157x elapsed=0:00:10.83    
frame=   54 fps=4.8 q=8.0 size=       1KiB time=00:00:01.80 bitrate=   4.0kbits/s speed=0.159x elapsed=0:00:11.35    
frame=   56 fps=4.7 q=8.0 size=       1KiB time=00:00:01.86 bitrate=   3.9kbits/s speed=0.157x elapsed=0:00:11.87    
frame=   59 fps=4.8 q=8.0 size=       1KiB time=00:00:01.96 bitrate=   3.7kbits/s speed=0.159x elapsed=0:00:12.38    
frame=   60 fps=4.7 q=8.0 size=       1KiB time=00:00:02.00 bitrate=   3.6kbits/s speed=0.155x elapsed=0:00:12.89    
frame=   63 fps=4.7 q=5.0 size=       1KiB time=00:00:02.10 bitrate=   3.4kbits/s speed=0.157x elapsed=0:00:13.41    
frame=   64 fps=4.6 q=4.0 size=       1KiB time=00:00:02.13 bitrate=   3.4kbits/s speed=0.153x elapsed=0:00:13.92    
frame=   66 fps=4.6 q=6.0 size=       1KiB time=00:00:02.20 bitrate=   3.3kbits/s speed=0.152x elapsed=0:00:14.43    
frame=   68 fps=4.5 q=7.0 size=       1KiB time=00:00:02.26 bitrate=   3.2kbits/s speed=0.152x elapsed=0:00:14.95    
frame=   70 fps=4.5 q=7.0 size=       1KiB time=00:00:02.33 bitrate=   3.1kbits/s speed=0.151x elapsed=0:00:15.46    
frame=   72 fps=4.5 q=8.0 size=       1KiB time=00:00:02.40 bitrate=   3.0kbits/s speed=0.15x elapsed=0:00:15.98    
frame=   75 fps=4.5 q=4.0 size=       1KiB time=00:00:02.50 bitrate=   2.9kbits/s speed=0.152x elapsed=0:00:16.49    
frame=   78 fps=4.6 q=5.0 size=       1KiB time=00:00:02.60 bitrate=   2.8kbits/s speed=0.153x elapsed=0:00:17.02    
frame=   80 fps=4.6 q=5.0 size=       1KiB time=00:00:02.66 bitrate=   2.7kbits/s speed=0.152x elapsed=0:00:17.53    
frame=   82 fps=4.5 q=3.0 size=       1KiB time=00:00:02.73 bitrate=   2.6kbits/s speed=0.151x elapsed=0:00:18.06    
frame=   84 fps=4.5 q=5.0 size=       1KiB time=00:00:02.80 bitrate=   2.6kbits/s speed=0.151x elapsed=0:00:18.57    
frame=   86 fps=4.5 q=7.0 size=       1KiB time=00:00:02.86 bitrate=   2.5kbits/s speed=0.15x elapsed=0:00:19.09    
frame=   88 fps=4.5 q=7.0 size=       1KiB time=00:00:02.93 bitrate=   2.5kbits/s speed=0.149x elapsed=0:00:19.62    
frame=   90 fps=4.5 q=9.0 size=       1KiB time=00:00:03.00 bitrate=   2.4kbits/s speed=0.149x elapsed=0:00:20.14    
frame=   92 fps=4.5 q=7.0 size=       1KiB time=00:00:03.06 bitrate=   2.3kbits/s speed=0.148x elapsed=0:00:20.65    
frame=   94 fps=4.4 q=6.0 size=       1KiB time=00:00:03.13 bitrate=   2.3kbits/s speed=0.148x elapsed=0:00:21.18    
frame=   97 fps=4.5 q=8.0 size=       1KiB time=00:00:03.23 bitrate=   2.2kbits/s speed=0.149x elapsed=0:00:21.69    
frame=   99 fps=4.5 q=5.0 size=       1KiB time=00:00:03.30 bitrate=   2.2kbits/s speed=0.149x elapsed=0:00:22.21    
frame=  100 fps=4.4 q=6.0 size=       1KiB time=00:00:03.33 bitrate=   2.2kbits/s speed=0.147x elapsed=0:00:22.72    
frame=  102 fps=4.4 q=7.0 size=       1KiB time=00:00:03.40 bitrate=   2.1kbits/s speed=0.146x elapsed=0:00:23.24    
frame=  104 fps=4.4 q=7.0 size=       1KiB time=00:00:03.46 bitrate=   2.1kbits/s speed=0.146x elapsed=0:00:23.77    
frame=  106 fps=4.4 q=8.0 size=       1KiB time=00:00:03.53 bitrate=   2.0kbits/s speed=0.145x elapsed=0:00:24.29    
frame=  108 fps=4.4 q=8.0 size=       1KiB time=00:00:03.60 bitrate=   2.0kbits/s speed=0.145x elapsed=0:00:24.80    
frame=  110 fps=4.3 q=7.0 size=       1KiB time=00:00:03.66 bitrate=   2.0kbits/s speed=0.145x elapsed=0:00:25.31    
frame=  112 fps=4.3 q=5.0 size=       1KiB time=00:00:03.73 bitrate=   1.9kbits/s speed=0.145x elapsed=0:00:25.83    
frame=  114 fps=4.3 q=6.0 size=       1KiB time=00:00:03.80 bitrate=   1.9kbits/s speed=0.144x elapsed=0:00:26.34    
frame=  116 fps=4.3 q=8.0 size=       1KiB time=00:00:03.86 bitrate=   1.9kbits/s speed=0.144x elapsed=0:00:26.86    
frame=  119 fps=4.3 q=7.0 size=       1KiB time=00:00:03.96 bitrate=   1.8kbits/s speed=0.145x elapsed=0:00:27.38    
frame=  120 fps=4.3 q=7.0 size=       1KiB time=00:00:04.00 bitrate=   1.8kbits/s speed=0.143x elapsed=0:00:27.89    
frame=  123 fps=4.3 q=5.0 size=       1KiB time=00:00:04.10 bitrate=   1.8kbits/s speed=0.144x elapsed=0:00:28.41    
frame=  125 fps=4.3 q=4.0 size=       1KiB time=00:00:04.16 bitrate=   1.7kbits/s speed=0.144x elapsed=0:00:28.92    
frame=  128 fps=4.3 q=5.0 size=       1KiB time=00:00:04.26 bitrate=   1.7kbits/s speed=0.145x elapsed=0:00:29.44    
frame=  130 fps=4.3 q=3.0 size=    1280KiB time=00:00:04.33 bitrate=2419.8kbits/s speed=0.145x elapsed=0:00:29.95    
frame=  132 fps=4.3 q=7.0 size=    1280KiB time=00:00:04.40 bitrate=2383.1kbits/s speed=0.144x elapsed=0:00:30.47    
frame=  135 fps=4.4 q=4.0 size=    1280KiB time=00:00:04.50 bitrate=2330.2kbits/s speed=0.145x elapsed=0:00:30.99    
frame=  138 fps=4.4 q=12.0 size=    1280KiB time=00:00:04.60 bitrate=2279.5kbits/s speed=0.146x elapsed=0:00:31.50    
frame=  140 fps=4.4 q=10.0 size=    1280KiB time=00:00:04.66 bitrate=2246.9kbits/s speed=0.146x elapsed=0:00:32.02    
frame=  142 fps=4.4 q=6.0 size=    1280KiB time=00:00:04.73 bitrate=2215.3kbits/s speed=0.145x elapsed=0:00:32.53    
frame=  144 fps=4.4 q=10.0 size=    1280KiB time=00:00:04.80 bitrate=2184.5kbits/s speed=0.145x elapsed=0:00:33.05    
frame=  147 fps=4.4 q=6.0 size=    1280KiB time=00:00:04.90 bitrate=2140.0kbits/s speed=0.146x elapsed=0:00:33.56    
frame=  148 fps=4.3 q=7.0 size=    1280KiB time=00:00:04.93 bitrate=2125.5kbits/s speed=0.145x elapsed=0:00:34.08    
frame=  151 fps=4.4 q=8.0 size=    1280KiB time=00:00:05.03 bitrate=2083.3kbits/s speed=0.145x elapsed=0:00:34.59    
frame=  153 fps=4.4 q=5.0 size=    1280KiB time=00:00:05.10 bitrate=2056.0kbits/s speed=0.145x elapsed=0:00:35.11    
frame=  156 fps=4.4 q=7.0 size=    1280KiB time=00:00:05.20 bitrate=2016.5kbits/s speed=0.146x elapsed=0:00:35.62    
frame=  158 fps=4.4 q=8.0 size=    1280KiB time=00:00:05.26 bitrate=1991.0kbits/s speed=0.146x elapsed=0:00:36.14    
frame=  160 fps=4.4 q=5.0 size=    1280KiB time=00:00:05.33 bitrate=1966.1kbits/s speed=0.145x elapsed=0:00:36.65    
frame=  163 fps=4.4 q=5.0 size=    1280KiB time=00:00:05.43 bitrate=1929.9kbits/s speed=0.146x elapsed=0:00:37.17    
frame=  165 fps=4.4 q=3.0 size=    1280KiB time=00:00:05.50 bitrate=1906.5kbits/s speed=0.146x elapsed=0:00:37.69    
frame=  167 fps=4.4 q=4.0 size=    1280KiB time=00:00:05.56 bitrate=1883.7kbits/s speed=0.146x elapsed=0:00:38.20    
frame=  168 fps=4.3 q=4.0 size=    1280KiB time=00:00:05.60 bitrate=1872.5kbits/s speed=0.145x elapsed=0:00:38.72    
frame=  171 fps=4.4 q=3.0 size=    1280KiB time=00:00:05.70 bitrate=1839.6kbits/s speed=0.145x elapsed=0:00:39.24    
frame=  174 fps=4.4 q=6.0 size=    1280KiB time=00:00:05.80 bitrate=1807.9kbits/s speed=0.146x elapsed=0:00:39.75    
frame=  176 fps=4.4 q=8.0 size=    1280KiB time=00:00:05.86 bitrate=1787.3kbits/s speed=0.146x elapsed=0:00:40.27    
frame=  178 fps=4.4 q=8.0 size=    1280KiB time=00:00:05.93 bitrate=1767.3kbits/s speed=0.145x elapsed=0:00:40.79    
frame=  180 fps=4.4 q=9.0 size=    1280KiB time=00:00:06.00 bitrate=1747.6kbits/s speed=0.145x elapsed=0:00:41.30    
frame=  182 fps=4.4 q=8.0 size=    1280KiB time=00:00:06.06 bitrate=1728.4kbits/s speed=0.145x elapsed=0:00:41.82    
frame=  184 fps=4.3 q=8.0 size=    1280KiB time=00:00:06.13 bitrate=1709.6kbits/s speed=0.145x elapsed=0:00:42.34    
frame=  186 fps=4.3 q=9.0 size=    1280KiB time=00:00:06.20 bitrate=1691.3kbits/s speed=0.145x elapsed=0:00:42.85    
frame=  188 fps=4.3 q=9.0 size=    1280KiB time=00:00:06.26 bitrate=1673.3kbits/s speed=0.144x elapsed=0:00:43.37    
frame=  190 fps=4.3 q=6.0 size=    1280KiB time=00:00:06.33 bitrate=1655.6kbits/s speed=0.144x elapsed=0:00:43.89    
frame=  192 fps=4.3 q=8.0 size=    1280KiB time=00:00:06.40 bitrate=1638.4kbits/s speed=0.144x elapsed=0:00:44.41    
frame=  194 fps=4.3 q=9.0 size=    1280KiB time=00:00:06.46 bitrate=1621.5kbits/s speed=0.144x elapsed=0:00:44.92    
frame=  196 fps=4.3 q=8.0 size=    1280KiB time=00:00:06.53 bitrate=1605.0kbits/s speed=0.144x elapsed=0:00:45.43    
frame=  198 fps=4.3 q=8.0 size=    1280KiB time=00:00:06.60 bitrate=1588.8kbits/s speed=0.144x elapsed=0:00:45.95    
frame=  200 fps=4.3 q=8.0 size=    1280KiB time=00:00:06.66 bitrate=1572.9kbits/s speed=0.143x elapsed=0:00:46.47    
frame=  201 fps=4.3 q=5.0 size=    1280KiB time=00:00:06.70 bitrate=1565.0kbits/s speed=0.143x elapsed=0:00:46.98    
frame=  203 fps=4.3 q=6.0 size=    1280KiB time=00:00:06.76 bitrate=1549.6kbits/s speed=0.142x elapsed=0:00:47.50    
frame=  206 fps=4.3 q=5.0 size=    1280KiB time=00:00:06.86 bitrate=1527.1kbits/s speed=0.143x elapsed=0:00:48.01    
frame=  207 fps=4.3 q=4.0 size=    1280KiB time=00:00:06.90 bitrate=1519.7kbits/s speed=0.142x elapsed=0:00:48.53    
frame=  208 fps=4.2 q=4.0 size=    1280KiB time=00:00:06.93 bitrate=1512.4kbits/s speed=0.141x elapsed=0:00:49.05    
frame=  210 fps=4.2 q=7.0 size=    1280KiB time=00:00:07.00 bitrate=1498.0kbits/s speed=0.141x elapsed=0:00:49.56    
frame=  212 fps=4.2 q=6.0 size=    1280KiB time=00:00:07.06 bitrate=1483.8kbits/s speed=0.141x elapsed=0:00:50.08    
frame=  215 fps=4.2 q=6.0 size=    1280KiB time=00:00:07.16 bitrate=1463.1kbits/s speed=0.142x elapsed=0:00:50.60    
frame=  218 fps=4.3 q=7.0 size=    1280KiB time=00:00:07.26 bitrate=1443.0kbits/s speed=0.142x elapsed=0:00:51.11    
frame=  219 fps=4.2 q=1.0 size=    1280KiB time=00:00:07.30 bitrate=1436.4kbits/s speed=0.141x elapsed=0:00:51.63    
frame=  222 fps=4.3 q=8.0 size=    1280KiB time=00:00:07.40 bitrate=1417.0kbits/s speed=0.142x elapsed=0:00:52.14    
frame=  224 fps=4.3 q=8.0 size=    1280KiB time=00:00:07.46 bitrate=1404.3kbits/s speed=0.142x elapsed=0:00:52.65    
frame=  227 fps=4.3 q=11.0 size=    1280KiB time=00:00:07.56 bitrate=1385.8kbits/s speed=0.142x elapsed=0:00:53.17    
frame=  228 fps=4.2 q=11.0 size=    1280KiB time=00:00:07.60 bitrate=1379.7kbits/s speed=0.142x elapsed=0:00:53.69    
frame=  231 fps=4.3 q=6.0 size=    1280KiB time=00:00:07.70 bitrate=1361.8kbits/s speed=0.142x elapsed=0:00:54.20    
frame=  233 fps=4.3 q=7.0 size=    1280KiB time=00:00:07.76 bitrate=1350.1kbits/s speed=0.142x elapsed=0:00:54.72    
frame=  236 fps=4.3 q=7.0 size=    1280KiB time=00:00:07.86 bitrate=1332.9kbits/s speed=0.142x elapsed=0:00:55.24    
frame=  238 fps=4.3 q=7.0 size=    1280KiB time=00:00:07.93 bitrate=1321.7kbits/s speed=0.142x elapsed=0:00:55.75    
frame=  239 fps=4.2 q=2.0 size=    1280KiB time=00:00:07.96 bitrate=1316.2kbits/s speed=0.142x elapsed=0:00:56.27    
frame=  242 fps=4.3 q=8.0 size=    1280KiB time=00:00:08.06 bitrate=1299.9kbits/s speed=0.142x elapsed=0:00:56.79    
frame=  244 fps=4.3 q=6.0 size=    1280KiB time=00:00:08.13 bitrate=1289.2kbits/s speed=0.142x elapsed=0:00:57.30    
frame=  246 fps=4.3 q=8.0 size=    1280KiB time=00:00:08.20 bitrate=1278.8kbits/s speed=0.142x elapsed=0:00:57.82    
frame=  248 fps=4.3 q=8.0 size=    1280KiB time=00:00:08.26 bitrate=1268.4kbits/s speed=0.142x elapsed=0:00:58.33    
frame=  251 fps=4.3 q=5.0 size=    1280KiB time=00:00:08.36 bitrate=1253.3kbits/s speed=0.142x elapsed=0:00:58.85    
frame=  254 fps=4.3 q=5.0 size=    1280KiB time=00:00:08.46 bitrate=1238.5kbits/s speed=0.143x elapsed=0:00:59.36    
frame=  256 fps=4.3 q=5.0 size=    1280KiB time=00:00:08.53 bitrate=1228.8kbits/s speed=0.143x elapsed=0:00:59.88    
frame=  258 fps=4.3 q=5.0 size=    2816KiB time=00:00:08.60 bitrate=2682.4kbits/s speed=0.142x elapsed=0:01:00.39    
frame=  261 fps=4.3 q=3.0 size=    2816KiB time=00:00:08.70 bitrate=2651.6kbits/s speed=0.143x elapsed=0:01:00.91    
frame=  264 fps=4.3 q=7.0 size=    2816KiB time=00:00:08.80 bitrate=2621.4kbits/s speed=0.143x elapsed=0:01:01.42    
frame=  267 fps=4.3 q=2.0 size=    2816KiB time=00:00:08.90 bitrate=2592.0kbits/s speed=0.144x elapsed=0:01:01.94    
